<?xml version="1.0" standalone="no"?>
<svg version="1.1" id="downloadSvg" xmlns="http://www.w3.org/2000/svg" xmlns:xlink="http://www.w3.org/1999/xlink" x="0px" y="0px" viewBox="0 0 1200 1200" enable-background="new 0 0 1200 1200" xml:space="preserve" height="512" width="512">
<g>
	<g>
		<path fill="#D9D9D9 " d="M597.313,1115.995l-22.801-20.068C272.063,829.71,104.648,623.313,62.691,464.959&#10;&#9;&#9;&#9;c-6.242-23.708-10.368-48.697-12.272-74.323c-0.166-2.562-3.271-54.482,10.334-104.509l0.337-1.165&#10;&#9;&#9;&#9;c30.391-98.043,99.099-161.919,204.217-189.823c28.026-7.393,56.259-11.134,83.97-11.134c47.926,0,93.793,11.086,136.332,32.96&#10;&#9;&#9;&#9;l2.935,1.694c41.345,26.69,78.273,64.725,110.203,113.441c48.93-73.202,101.444-116.541,159.579-131.953l29.968-8.006&#10;&#9;&#9;&#9;c33.934-8.806,73.981-9.798,119.574-3.131l1.903,0.33c123.669,25.23,201.041,91.146,229.99,195.93&#10;&#9;&#9;&#9;c3.609,10.045,12.614,41.851,9.648,102.89l-0.135,1.8c-7.593,75.011-43.762,163.749-107.506,263.752l-1.489,2.148&#10;&#9;&#9;&#9;c-103.121,137.533-244.483,285.597-420.157,440.076L597.313,1115.995z M127.226,304.819c-10.284,38.323-7.953,80.646-7.927,81.066&#10;&#9;&#9;&#9;c1.569,21.058,4.99,41.857,10.149,61.445c36.782,138.833,194.166,332.756,467.875,576.57&#10;&#9;&#9;&#9;c161.105-143.628,291.188-280.926,386.92-408.41c57.192-89.937,89.565-167.847,96.243-231.606&#10;&#9;&#9;&#9;c2.268-48.673-4.594-71.838-5.626-75.009l-1.135-2.414l-0.169-1.536c-21.447-79.297-79.229-127.634-176.635-147.738&#10;&#9;&#9;&#9;c-35.849-5.154-66.84-4.561-91.051,1.726l-29.788,7.954c-50.089,13.284-107.409,58.504-146.068,146.544&#10;&#9;&#9;&#9;C620.38,335.342,600,404.405,600,404.405l-33.807-91.194c-31.842-61.421-70.078-107.038-113.667-135.612&#10;&#9;&#9;&#9;c-32.249-16.29-66.976-24.552-103.247-24.552c-21.768,0-44.079,2.974-66.301,8.83C201.49,183.521,150.518,230.284,127.226,304.819&#10;&#9;&#9;&#9;z" style="fill: rgb(39, 39, 39);"/>
	</g>
</g>
</svg>